HIERARCHY
ROOT Hips
{
	OFFSET -3.958830 18.904000 13.208200
	CHANNELS 6 Xposition Yposition Zposition Zrotation Yrotation Xrotation 
	JOINT LHipJoint
	{
		OFFSET 0.000000 0.000000 0.000000
		CHANNELS 3 Zrotation Yrotation Xrotation
		JOINT LeftUpLeg
		{
			OFFSET 1.800000 -1.400000 0.085000
			CHANNELS 3 Zrotation Yrotation Xrotation
			JOINT LeftLeg
			{
				OFFSET 2.215000 -6.000000 0.000000
				CHANNELS 3 Zrotation Yrotation Xrotation
				JOINT LeftFoot
				{
					OFFSET 2.500000 -6.900000 0.000000
					CHANNELS 3 Zrotation Yrotation Xrotation
					JOINT LeftToeBase
					{
						OFFSET 0.200000 -0.500000 1.950000
						CHANNELS 3 Zrotation Yrotation Xrotation
						End Site
						{
							OFFSET 0.000000 0.000000 0.000000
						}
					}
				}
			}
		}
	}
	JOINT RHipJoint
	{
		OFFSET 0.000000 0.000000 0.000000
		CHANNELS 3 Zrotation Yrotation Xrotation
		JOINT RightUpLeg
		{
			OFFSET -1.800000 -1.400000 0.085000
			CHANNELS 3 Zrotation Yrotation Xrotation
			JOINT RightLeg
			{
				OFFSET -2.215000 -6.000000 0.000000
				CHANNELS 3 Zrotation Yrotation Xrotation
				JOINT RightFoot
				{
					OFFSET -2.500000 -6.900000 0.000000
					CHANNELS 3 Zrotation Yrotation Xrotation
					JOINT RightToeBase
					{
						OFFSET -0.200000 -0.500000 1.950000
						CHANNELS 3 Zrotation Yrotation Xrotation
						End Site
						{
							OFFSET 0.000000 0.000000 0.000000
						}
					}
				}
			}
		}
	}
	JOINT LowerBack
	{
		OFFSET 0.000000 0.000000 0.000000
		CHANNELS 3 Zrotation Yrotation Xrotation
		JOINT Spine
		{
			OFFSET -0.087000 1.940000 -0.288900
			CHANNELS 3 Zrotation Yrotation Xrotation
			JOINT Spine1
			{
				OFFSET 0.000000 1.950000 0.060000
				CHANNELS 3 Zrotation Yrotation Xrotation
				JOINT Neck
				{
					OFFSET 0.000000 0.000000 0.000000
					CHANNELS 3 Zrotation Yrotation Xrotation
					JOINT Neck1
					{
						OFFSET 0.000000 1.600000 0.340000
						CHANNELS 3 Zrotation Yrotation Xrotation
						JOINT Head
						{
							OFFSET 0.000000 1.667000 -0.240000
							CHANNELS 3 Zrotation Yrotation Xrotation
							End Site
							{
								OFFSET 0.000000 0.000000 0.000000
							}
						}
					}
				}
				JOINT LeftShoulder
				{
					OFFSET 0.000000 0.000000 0.000000
					CHANNELS 3 Zrotation Yrotation Xrotation
					JOINT LeftArm
					{
						OFFSET 2.700000 1.550000 -0.730000
						CHANNELS 3 Zrotation Yrotation Xrotation
						JOINT LeftForeArm
						{
							OFFSET 5.450000 0.000000 0.000000
							CHANNELS 3 Zrotation Yrotation Xrotation
							JOINT LeftHand
							{
								OFFSET 3.450000 0.000000 0.000000
								CHANNELS 3 Zrotation Yrotation Xrotation
								JOINT LeftHandIndex1
								{
									OFFSET 0.750000 0.000000 0.000000
									CHANNELS 3 Zrotation Yrotation Xrotation
									End Site
									{
										OFFSET 0.000000 0.000000 0.000000
									}
								}
							}
						}
					}
				}
				JOINT RightShoulder
				{
					OFFSET 0.000000 0.000000 0.000000
					CHANNELS 3 Zrotation Yrotation Xrotation
					JOINT RightArm
					{
						OFFSET -2.700000 1.550000 -0.730000
						CHANNELS 3 Zrotation Yrotation Xrotation
						JOINT RightForeArm
						{
							OFFSET -5.450000 0.000000 0.000000
							CHANNELS 3 Zrotation Yrotation Xrotation
							JOINT RightHand
							{
								OFFSET -3.450000 0.000000 0.000000
								CHANNELS 3 Zrotation Yrotation Xrotation
								JOINT RightHandIndex1
								{
									OFFSET -0.750000 0.000000 0.000000
									CHANNELS 3 Zrotation Yrotation Xrotation
									End Site
									{
										OFFSET 0.000000 0.000000 0.000000
									}
								}
							}
						}
					}
				}
			}
		}
	}
}
MOTION
Frames: 8
Frame Time: 0.016667
0.935390 17.301470 -1.433340 -2.277146 12.966145 2.803743 -15.227267 11.920109 2.812948 -2.622233 0.394931 -2.910061 -6.620349 3.836865 2.749938 -0.874173 4.661895 3.353816 0.244220 -0.002050 -0.080050 18.415850 -10.713590 3.418011 -2.917514 3.716047 -25.279372 5.901118 -2.418224 -2.899227 -0.077152 -2.970273 3.206625 0.288080 1.136110 1.008060 -3.907745 1.225205 -7.318165 6.343394 5.450774 5.398327 0.761153 3.914668 10.302742 4.547271 5.241954 -11.542189 10.013481 -5.866485 21.893538 -9.310430 -2.427910 -6.058710 -15.130329 -18.316822 7.232882 -4.935759 -4.793571 1.888274 6.851868 -10.615228 -1.304695 -4.603606 2.764733 0.479980 0.891690 -0.018300 0.513820 6.635437 18.771763 4.821113 15.115610 23.758709 -0.096683 -3.402843 36.551017 -0.616632 1.576899 -1.626469 -0.394330 0.307410 0.160310 0.150810 
0.930230 17.299890 -1.428470 -1.995609 12.956646 2.820812 -15.250958 11.912504 2.808194 -2.742323 0.449588 -2.816887 -6.710711 3.862101 2.754190 -0.887626 4.678993 3.344302 0.252860 0.007850 -0.065190 18.399710 -10.673824 3.422248 -3.229985 3.711520 -25.430730 5.881125 -2.365571 -3.307197 -0.084746 -2.975156 3.201987 0.298170 1.125670 1.004860 -3.844781 1.186882 -7.298906 5.585278 5.567182 5.319869 1.261622 3.880843 10.179885 4.582009 5.437060 -11.455179 10.357556 -6.102613 21.848395 -9.656340 -2.394150 -6.340270 -14.928287 -18.040825 7.191782 -5.165590 -4.385427 1.843987 6.722289 -11.778748 -1.287393 -4.583737 2.760548 0.493770 0.888940 -0.009610 0.511130 6.412257 18.449274 4.626287 15.025466 23.817898 -0.341176 -3.674553 38.068517 -0.704217 1.553763 -1.630061 -0.402090 0.314140 0.156120 0.140540 
0.920970 17.290080 -1.424050 -1.651764 13.221713 3.026184 -15.257047 11.850380 2.802579 -3.045059 0.492094 -2.682045 -6.666284 3.798110 2.420203 -0.924781 4.710381 3.337491 0.271950 0.010900 -0.047160 18.410061 -10.642677 3.429606 -3.534795 3.804083 -26.155968 5.581520 -2.274016 -3.599946 -0.066152 -2.975949 3.191664 0.322760 1.139750 1.013590 -3.848077 1.262731 -7.260330 4.919822 5.510332 4.832326 1.445082 3.687900 10.410297 4.645496 5.449090 -11.406467 10.470951 -6.298611 21.231956 -9.947020 -2.593670 -5.921250 -14.137639 -17.669547 7.141719 -5.616157 -3.924335 1.863243 6.751960 -13.179470 -1.306965 -4.598741 2.781496 0.482660 0.913790 -0.038500 0.508200 5.547497 18.150307 4.462299 15.368848 24.349478 -0.399732 -5.268389 39.228164 -1.337219 1.505083 -1.671702 -0.414380 0.311270 0.161020 0.124980 
0.917070 17.278090 -1.424320 -1.775298 13.739163 2.974724 -15.250543 11.809604 2.782461 -2.904837 0.484991 -2.595600 -6.430881 3.698607 2.124899 -0.935736 4.713811 3.335870 0.301460 0.048390 -0.052390 18.425624 -10.639034 3.446951 -3.461023 3.953066 -26.828048 5.231718 -2.185295 -3.668364 -0.051081 -2.968524 3.180372 0.359250 1.160100 1.034500 -3.885145 1.359643 -7.238759 5.009264 5.291906 4.617303 1.550097 3.375484 10.591287 4.803787 5.369021 -11.292810 10.443764 -6.420188 20.502079 -9.828610 -2.962920 -5.472110 -13.615762 -17.148863 6.846149 -6.116425 -3.895821 1.767638 7.687252 -14.840847 -1.403333 -4.610270 2.838393 0.442790 0.939970 -0.059600 0.524680 4.750850 17.737118 4.444262 15.052214 23.795256 -1.063181 -6.200410 42.213678 -1.891870 1.451922 -1.753926 -0.399880 0.299260 0.156250 0.139520 
0.917250 17.274770 -1.413690 -1.996481 13.943360 2.880437 -15.240971 11.757516 2.767118 -2.567846 0.557669 -2.292321 -6.605001 3.678066 1.675641 -0.903697 4.715339 3.326203 0.338150 0.120320 -0.059460 18.445369 -10.633886 3.470108 -3.180301 4.125906 -27.345736 4.977666 -2.087211 -3.863436 -0.060870 -2.924576 3.193496 0.393290 1.152980 1.040160 -3.927030 1.476778 -7.233865 5.238698 5.337791 4.433049 1.666162 3.364329 10.544736 4.908319 5.416087 -11.164502 10.604763 -6.897973 20.140018 -9.461450 -3.579890 -6.003390 -12.996437 -16.687788 6.594821 -7.210769 -4.090270 1.544090 8.951152 -16.780078 -1.546410 -4.577878 2.866459 0.418640 0.932450 -0.038180 0.549280 3.931178 17.277118 4.346560 15.170916 23.690264 -1.247519 -6.335297 44.319662 -2.084014 1.431592 -1.785260 -0.367040 0.306020 0.134940 0.169210 
0.910900 17.273500 -1.404860 -1.528051 14.196050 2.785125 -15.278647 11.766753 2.785808 -2.873787 0.719729 -1.808274 -6.610504 3.691615 1.548796 -0.908158 4.728115 3.307217 0.371650 0.153490 -0.030140 18.413358 -10.582915 3.468980 -3.756776 4.113459 -27.815013 5.222382 -2.085646 -3.773849 -0.073328 -2.896348 3.190437 0.410510 1.109970 1.027030 -3.825333 1.393099 -7.228388 4.197785 5.544044 4.575137 2.261539 3.442409 10.412215 4.925683 5.662497 -11.300387 11.060445 -7.669200 20.009589 -9.466870 -4.093340 -6.726940 -13.124247 -16.928134 6.685105 -7.292425 -3.416443 1.261346 9.439152 -19.143786 -1.645109 -4.500469 2.888280 0.451560 0.897140 -0.013940 0.548700 4.012539 17.548632 4.371341 14.111451 23.228037 -1.767393 -5.880026 45.926473 -1.945398 1.422480 -1.799211 -0.366390 0.303310 0.114990 0.155380 
0.902850 17.261350 -1.383560 -1.125001 15.027328 3.204516 -15.298224 11.726680 2.776195 -2.958893 0.785183 -1.826467 -6.964638 3.687657 1.141008 -0.915809 4.767622 3.289533 0.404340 0.193800 -0.017210 18.410306 -10.513111 3.469963 -4.433506 4.168280 -28.599487 5.488124 -2.056474 -3.797106 -0.072407 -2.927294 3.161288 0.446290 1.114080 1.057940 -3.788752 1.365878 -7.167570 3.212378 5.572958 3.828534 2.661643 3.282196 10.096145 4.979461 6.017347 -11.097516 11.769115 -8.762715 18.955794 -10.168190 -4.654260 -6.353240 -13.507905 -16.859883 6.497602 -6.536540 -3.179614 1.233504 8.853485 -21.473128 -1.579582 -4.498808 2.953190 0.421170 0.925860 -0.017480 0.562950 4.254050 17.198355 4.123882 13.342214 23.009902 -1.626193 -4.422417 47.730852 -1.429920 1.400079 -1.868807 -0.349980 0.284860 0.101570 0.161590 
0.889890 17.262830 -1.376650 -0.953578 15.867084 3.104759 -15.321480 11.755968 2.774372 -2.693043 0.833675 -1.789699 -7.399582 3.783255 1.235501 -0.872538 4.748002 3.262115 0.456310 0.259230 0.023200 18.385190 -10.470954 3.478463 -4.711752 4.143446 -28.771757 5.676935 -2.043750 -3.893952 -0.115235 -2.898427 3.143639 0.452760 1.035200 1.076260 -3.724026 1.258955 -7.181663 2.746990 5.506504 3.966972 2.837108 3.153073 9.836222 4.992948 6.375060 -11.183622 12.379939 -9.943152 18.955883 -10.369980 -5.312670 -7.324940 -13.709590 -17.240903 6.615145 -6.117061 -2.982329 1.059818 8.648131 -22.729827 -1.533166 -4.417351 3.008811 0.439300 0.872150 0.047360 0.566600 4.359541 17.311747 4.134209 12.848987 22.650278 -1.918964 -4.138878 48.989450 -1.306354 1.424393 -1.887835 -0.295030 0.241630 0.061470 0.167650 
